<svg xmlns="http://www.w3.org/2000/svg" viewBox="0 0 60.54 62"><defs><style>.cls-1{fill:#ffc700;}</style></defs><title>logo-2020</title><g id="Layer_2" data-name="Layer 2"><g id="Layer_3" data-name="Layer 3"><polygon class="cls-1" points="41.33 41.33 35.43 41.33 54.64 0 60.54 0 41.33 41.33"/><polygon class="cls-1" points="47.24 41.33 53.14 41.33 53.14 41.33 50.19 34.98 47.24 41.33"/><polygon class="cls-1" points="20.31 10.33 14.41 10.33 0 41.33 5.91 41.33 20.31 10.33"/><polygon class="cls-1" points="20.67 34.98 32.12 10.33 26.22 10.33 17.71 28.63 20.67 34.98"/><polygon class="cls-1" points="17.71 41.33 17.71 41.33 14.76 34.98 11.81 41.33 17.71 41.33"/><polygon class="cls-1" points="29.52 41.33 29.52 41.33 43.93 10.33 38.03 10.33 23.62 41.33 23.62 41.33 14.01 62 19.92 62 29.52 41.33"/></g></g></svg>